<svg width="620" height="341" viewBox="0 0 620 341" fill="none" xmlns="http://www.w3.org/2000/svg">
<path d="M231.029 234.337C240.747 234.337 248.624 226.467 248.624 216.758C248.624 207.049 240.747 199.178 231.029 199.178C221.312 199.178 213.435 207.049 213.435 216.758C213.435 226.467 221.312 234.337 231.029 234.337Z" fill="#8A63D2"/>
<path d="M229.352 224.178L224.087 217.414L227.149 215.034L229.643 218.237L238.066 209.352L240.883 212.019L229.352 224.178Z" fill="white"/>
<path d="M567.246 55.8579H305.686V5.72205e-06H567.246V55.8579Z" fill="white"/>
<path d="M339.578 42.1185C347.422 42.1185 353.78 35.7656 353.78 27.929C353.78 20.0923 347.422 13.7394 339.578 13.7394C331.735 13.7394 325.376 20.0923 325.376 27.929C325.376 35.7656 331.735 42.1185 339.578 42.1185Z" fill="#8A63D2"/>
<path d="M372.377 18.4693C371.75 18.4693 371.148 18.7184 370.704 19.1619C370.26 19.6054 370.01 20.207 370.01 20.8342C370.01 21.4614 370.26 22.0629 370.704 22.5064C371.148 22.9499 371.75 23.1991 372.377 23.1991H545.193C545.82 23.1976 546.421 22.9478 546.863 22.5045C547.306 22.0611 547.555 21.4604 547.555 20.8342C547.555 20.2079 547.306 19.6073 546.863 19.1639C546.421 18.7206 545.82 18.4707 545.193 18.4693H372.377Z" fill="#3F3D56"/>
<path d="M372.378 32.6588C371.75 32.6575 371.147 32.9053 370.702 33.3479C370.258 33.7905 370.007 34.3915 370.006 35.0187C370.004 35.6459 370.252 36.248 370.695 36.6924C371.138 37.1369 371.74 37.3873 372.368 37.3886H481.624C481.935 37.3891 482.243 37.3284 482.531 37.2097C482.818 37.0911 483.08 36.917 483.3 36.6973C483.52 36.4777 483.695 36.2168 483.814 35.9296C483.933 35.6424 483.994 35.3346 483.994 35.0237C483.994 34.7128 483.933 34.4049 483.814 34.1178C483.695 33.8306 483.52 33.5697 483.3 33.35C483.08 33.1304 482.818 32.9563 482.531 32.8376C482.243 32.719 481.935 32.6583 481.624 32.6588H372.378Z" fill="#3F3D56"/>
<path d="M567.246 55.8579H305.686V5.72205e-06H567.246V55.8579ZM309.679 51.8681H563.253V3.98986H309.679V51.8681Z" fill="#CCCCCC"/>
<path d="M567.246 125.68H305.686V69.8224H567.246V125.68Z" fill="white"/>
<path d="M339.578 111.941C347.422 111.941 353.78 105.588 353.78 97.7514C353.78 89.9147 347.422 83.5618 339.578 83.5618C331.735 83.5618 325.376 89.9147 325.376 97.7514C325.376 105.588 331.735 111.941 339.578 111.941Z" fill="#E6E6E6"/>
<path d="M372.377 88.2917C371.75 88.2917 371.148 88.5408 370.704 88.9843C370.26 89.4278 370.01 90.0294 370.01 90.6566C370.01 91.2838 370.26 91.8853 370.704 92.3288C371.148 92.7723 371.75 93.0215 372.377 93.0215H545.193C545.82 93.02 546.421 92.7702 546.863 92.3269C547.306 91.8835 547.555 91.2828 547.555 90.6566C547.555 90.0303 547.306 89.4297 546.863 88.9863C546.421 88.543 545.82 88.2931 545.193 88.2917H372.377Z" fill="#E6E6E6"/>
<path d="M372.378 102.481C371.75 102.48 371.147 102.728 370.702 103.17C370.258 103.613 370.007 104.214 370.006 104.841C370.004 105.468 370.252 106.07 370.695 106.515C371.138 106.959 371.74 107.21 372.368 107.211H481.624C481.935 107.212 482.243 107.151 482.531 107.032C482.818 106.914 483.08 106.739 483.3 106.52C483.52 106.3 483.695 106.039 483.814 105.752C483.933 105.465 483.994 105.157 483.994 104.846C483.994 104.535 483.933 104.227 483.814 103.94C483.695 103.653 483.52 103.392 483.3 103.172C483.08 102.953 482.818 102.779 482.531 102.66C482.243 102.541 481.935 102.481 481.624 102.481H372.378Z" fill="#E6E6E6"/>
<path d="M567.246 125.68H305.686V69.8224H567.246V125.68ZM309.679 121.69H563.253V73.8123H309.679V121.69Z" fill="#E6E6E6"/>
<path d="M567.246 195.503H305.686V139.645H567.246V195.503Z" fill="white"/>
<path d="M339.578 181.763C347.422 181.763 353.78 175.41 353.78 167.574C353.78 159.737 347.422 153.384 339.578 153.384C331.735 153.384 325.376 159.737 325.376 167.574C325.376 175.41 331.735 181.763 339.578 181.763Z" fill="#E6E6E6"/>
<path d="M372.377 158.114C371.75 158.114 371.148 158.363 370.704 158.807C370.26 159.25 370.01 159.852 370.01 160.479C370.01 161.106 370.26 161.708 370.704 162.151C371.148 162.595 371.75 162.844 372.377 162.844H545.193C545.82 162.842 546.421 162.593 546.863 162.149C547.306 161.706 547.555 161.105 547.555 160.479C547.555 159.853 547.306 159.252 546.863 158.809C546.421 158.365 545.82 158.116 545.193 158.114H372.377Z" fill="#E6E6E6"/>
<path d="M372.378 172.304C371.75 172.302 371.147 172.55 370.702 172.993C370.258 173.435 370.007 174.036 370.006 174.664C370.004 175.291 370.252 175.893 370.695 176.337C371.138 176.782 371.74 177.032 372.368 177.033H481.624C481.935 177.034 482.243 176.973 482.531 176.855C482.818 176.736 483.08 176.562 483.3 176.342C483.52 176.122 483.695 175.862 483.814 175.574C483.933 175.287 483.994 174.979 483.994 174.668C483.994 174.358 483.933 174.05 483.814 173.763C483.695 173.475 483.52 173.215 483.3 172.995C483.08 172.775 482.818 172.601 482.531 172.482C482.243 172.364 481.935 172.303 481.624 172.304H372.378Z" fill="#E6E6E6"/>
<path d="M567.246 195.503H305.686V139.645H567.246V195.503ZM309.679 191.513H563.253V143.635H309.679V191.513Z" fill="#E6E6E6"/>
<path d="M133.614 208.755C133.018 207.99 132.597 207.103 132.381 206.157C132.165 205.211 132.159 204.229 132.363 203.281C132.568 202.333 132.978 201.441 133.565 200.668C134.152 199.895 134.902 199.26 135.761 198.808L134.374 183.707L143.353 180.627L145.012 201.98C145.676 203.472 145.77 205.156 145.275 206.713C144.779 208.27 143.73 209.591 142.325 210.426C140.92 211.261 139.257 211.552 137.652 211.244C136.046 210.936 134.61 210.051 133.614 208.755Z" fill="#FFB8B8"/>
<path d="M143.254 122.084C143.254 122.084 149.415 109.164 154.891 113.709C160.366 118.254 147.384 156.457 147.384 156.457L145.41 193.543L135.004 192.504L132.062 156.371L143.254 122.084Z" fill="#CCCCCC"/>
<path d="M60.6023 313.235L68.3266 319.482L96.1206 292.686L84.7204 283.466L60.6023 313.235Z" fill="#FFB8B8"/>
<path d="M60.673 309.121L75.8855 321.425L75.8861 321.425C78.457 323.505 80.0959 326.52 80.4421 329.807C80.7884 333.094 79.8137 336.383 77.7326 338.952L77.4775 339.267L52.5703 319.122L60.673 309.121Z" fill="#2F2E41"/>
<path d="M167.956 330.577H177.894L182.622 292.277L167.954 292.277L167.956 330.577Z" fill="#FFB8B8"/>
<path d="M165.42 327.335L184.992 327.335H184.993C188.301 327.335 191.473 328.648 193.813 330.985C196.152 333.322 197.466 336.491 197.466 339.797V340.201L165.421 340.203L165.42 327.335Z" fill="#2F2E41"/>
<path d="M185.394 151.023C185.394 151.023 204.039 173.701 199.986 196.379C195.932 219.057 192.69 236.066 192.69 236.066L186.205 287.092C186.205 287.092 188.637 300.988 185.394 304.569C185.394 304.569 190.258 313.01 181.341 316.249C172.424 319.489 167.613 315.13 167.613 315.13C167.613 315.13 161.075 305.72 165.128 303.29L166.836 203.153L101.899 287.902C101.899 287.902 100.705 298.21 92.3852 298.321L82.4438 305.72L71.095 299.241L76.7694 291.951C76.7694 291.951 73.5269 283.852 80.8226 282.232L122.975 227.156L133.514 198.809C133.514 198.809 139.188 176.94 154.59 168.031V158.551L185.394 151.023Z" fill="#2F2E41"/>
<path d="M153.374 111.741C155.829 108.842 159.264 106.948 163.027 106.417C166.789 105.886 170.616 106.756 173.777 108.862L174.451 109.311C181.646 117.452 186.482 127.401 188.438 138.085L191.474 154.667L153.374 162.913L144.442 132.136C143.309 128.229 143.582 124.049 145.213 120.323C146.845 116.597 149.733 113.56 153.374 111.741V111.741Z" fill="#CCCCCC"/>
<path d="M215.97 212.281C214.913 211.936 213.946 211.364 213.135 210.605C212.324 209.846 211.689 208.918 211.276 207.887C210.862 206.857 210.68 205.748 210.742 204.64C210.804 203.531 211.108 202.449 211.633 201.471L200.643 188.032L207.188 179.366L222.442 198.563C224.029 199.554 225.196 201.092 225.724 202.886C226.251 204.679 226.102 206.604 225.304 208.294C224.506 209.985 223.115 211.325 221.395 212.06C219.675 212.794 217.744 212.873 215.97 212.281H215.97Z" fill="#FFB8B8"/>
<path d="M169.587 123.89C169.587 123.89 167.155 107.691 175.262 108.501C183.368 109.311 195.527 153.857 195.527 153.857L217.414 190.304L206.876 195.974L180.936 163.577L169.587 123.89Z" fill="#CCCCCC"/>
<path d="M184.431 100.208H145.83C145.036 100.207 144.274 99.8914 143.713 99.3305C143.151 98.7695 142.836 98.0089 142.835 97.2155V80.5911C142.835 74.683 145.184 69.0168 149.365 64.8392C153.546 60.6615 159.217 58.3145 165.131 58.3145C171.044 58.3145 176.715 60.6615 180.896 64.8392C185.077 69.0168 187.426 74.683 187.426 80.5911V97.2155C187.426 98.0089 187.11 98.7695 186.548 99.3305C185.987 99.8914 185.225 100.207 184.431 100.208Z" fill="#2F2E41"/>
<path d="M169.712 99.8209C178.74 99.8209 186.059 92.5086 186.059 83.4884C186.059 74.4682 178.74 67.156 169.712 67.156C160.684 67.156 153.366 74.4682 153.366 83.4884C153.366 92.5086 160.684 99.8209 169.712 99.8209Z" fill="#FFB8B8"/>
<path d="M192.701 82.2536H172.129L171.918 78.8677L170.863 82.2536H167.696L167.278 75.5428L165.187 82.2536H159.058V81.9211C159.058 72.2043 165.954 64.2992 174.429 64.2992H177.33C185.805 64.2992 192.701 72.2043 192.701 81.9211V82.2536Z" fill="#2F2E41"/>
<path d="M172.981 103.311C172.729 103.311 172.478 103.292 172.23 103.253L147.744 99.4851V74.0034C147.744 71.4003 148.779 68.9038 150.621 67.0632C152.463 65.2225 154.962 64.1884 157.567 64.1884H174.698L174.031 64.8671C164.746 74.3117 171.741 89.6262 176.737 97.9143C177.104 98.51 177.269 99.2077 177.21 99.9045C177.15 100.601 176.868 101.261 176.405 101.785C175.98 102.273 175.453 102.663 174.862 102.926C174.27 103.19 173.628 103.321 172.981 103.311Z" fill="#2F2E41"/>
<path d="M602.405 45.4844C612.122 45.4844 620 37.6138 620 27.9049C620 18.1961 612.122 10.3254 602.405 10.3254C592.688 10.3254 584.811 18.1961 584.811 27.9049C584.811 37.6138 592.688 45.4844 602.405 45.4844Z" fill="#8A63D2"/>
<path d="M600.728 35.3255L595.463 28.5607L598.525 26.1807L601.019 29.3839L609.442 20.4992L612.259 23.1657L600.728 35.3255Z" fill="white"/>
<path d="M254.239 341H0.665548C0.489034 341 0.319749 340.93 0.194934 340.805C0.0701195 340.681 0 340.511 0 340.335C0 340.159 0.0701195 339.99 0.194934 339.865C0.319749 339.74 0.489034 339.67 0.665548 339.67H254.239C254.416 339.67 254.585 339.74 254.71 339.865C254.835 339.99 254.905 340.159 254.905 340.335C254.905 340.511 254.835 340.681 254.71 340.805C254.585 340.93 254.416 341 254.239 341Z" fill="#CCCCCC"/>
</svg>
