<svg width="140" height="43" viewBox="0 0 140 43" fill="none" xmlns="http://www.w3.org/2000/svg">
<path d="M15.4 39.168C16.52 39.264 17.08 39.776 17.08 40.704C17.08 41.248 16.872 41.664 16.456 41.952C16.072 42.208 15.48 42.304 14.68 42.24L13.384 42.144C10.824 41.952 8.936 41.184 7.72 39.84C6.504 38.496 5.896 36.464 5.896 33.744V21.696H2.68C2.136 21.696 1.704 21.568 1.384 21.312C1.096 21.024 0.952 20.656 0.952 20.208C0.952 19.728 1.096 19.344 1.384 19.056C1.704 18.768 2.136 18.624 2.68 18.624H5.896V13.2C5.896 12.592 6.072 12.128 6.424 11.808C6.776 11.456 7.256 11.28 7.864 11.28C8.44 11.28 8.904 11.456 9.256 11.808C9.608 12.128 9.784 12.592 9.784 13.2V18.624H15.112C15.624 18.624 16.024 18.768 16.312 19.056C16.632 19.344 16.792 19.728 16.792 20.208C16.792 20.656 16.632 21.024 16.312 21.312C16.024 21.568 15.624 21.696 15.112 21.696H9.784V33.936C9.784 35.696 10.136 36.976 10.84 37.776C11.576 38.544 12.664 38.976 14.104 39.072L15.4 39.168ZM30.6085 42.336C28.4005 42.336 26.4485 41.84 24.7525 40.848C23.0885 39.856 21.7925 38.448 20.8645 36.624C19.9685 34.768 19.5205 32.624 19.5205 30.192C19.5205 27.76 19.9685 25.632 20.8645 23.808C21.7925 21.952 23.0885 20.528 24.7525 19.536C26.4485 18.544 28.4005 18.048 30.6085 18.048C32.8165 18.048 34.7685 18.544 36.4645 19.536C38.1605 20.528 39.4565 21.952 40.3525 23.808C41.2805 25.632 41.7445 27.76 41.7445 30.192C41.7445 32.624 41.2805 34.768 40.3525 36.624C39.4565 38.448 38.1605 39.856 36.4645 40.848C34.7685 41.84 32.8165 42.336 30.6085 42.336ZM30.6085 39.12C32.9125 39.12 34.6725 38.368 35.8885 36.864C37.1365 35.328 37.7605 33.104 37.7605 30.192C37.7605 27.344 37.1365 25.152 35.8885 23.616C34.6405 22.048 32.8805 21.264 30.6085 21.264C28.3365 21.264 26.5765 22.048 25.3285 23.616C24.0805 25.152 23.4565 27.344 23.4565 30.192C23.4565 33.072 24.0645 35.28 25.2805 36.816C26.5285 38.352 28.3045 39.12 30.6085 39.12ZM48.6606 42.24C47.8926 42.24 47.2526 42 46.7406 41.52C46.2286 41.008 45.9726 40.352 45.9726 39.552C45.9726 38.752 46.2286 38.096 46.7406 37.584C47.2526 37.072 47.8926 36.816 48.6606 36.816C49.3966 36.816 50.0046 37.072 50.4846 37.584C50.9966 38.096 51.2526 38.752 51.2526 39.552C51.2526 40.352 50.9966 41.008 50.4846 41.52C50.0046 42 49.3966 42.24 48.6606 42.24ZM62.1134 42C60.992 42 60.1027 41.6907 59.4454 41.072C58.8267 40.4533 58.5174 39.5833 58.5174 38.462V4.648C58.5174 3.52666 58.8267 2.65667 59.4454 2.038C60.1027 1.41933 60.992 1.11 62.1134 1.11H73.5974C80.2867 1.11 85.468 2.908 89.1414 6.504C92.8534 10.0613 94.7094 15.0687 94.7094 21.526C94.7094 28.022 92.8534 33.068 89.1414 36.664C85.468 40.2213 80.2867 42 73.5974 42H62.1134ZM73.1334 35.91C82.5294 35.91 87.2274 31.1153 87.2274 21.526C87.2274 11.9753 82.5294 7.2 73.1334 7.2H65.9994V35.91H73.1334ZM120.456 42.522C116.473 42.522 113.013 41.6713 110.074 39.97C107.174 38.2687 104.931 35.8327 103.346 32.662C101.761 29.4913 100.968 25.7793 100.968 21.526C100.968 17.2727 101.741 13.58 103.288 10.448C104.873 7.27733 107.135 4.84133 110.074 3.14C113.013 1.43866 116.473 0.587997 120.456 0.587997C124.439 0.587997 127.88 1.43866 130.78 3.14C133.719 4.84133 135.961 7.27733 137.508 10.448C139.093 13.58 139.886 17.2727 139.886 21.526C139.886 25.7793 139.093 29.4913 137.508 32.662C135.923 35.8327 133.661 38.2687 130.722 39.97C127.822 41.6713 124.4 42.522 120.456 42.522ZM120.456 36.548C124.207 36.548 127.126 35.2527 129.214 32.662C131.341 30.0713 132.404 26.3593 132.404 21.526C132.404 16.6927 131.341 13 129.214 10.448C127.126 7.85733 124.207 6.562 120.456 6.562C116.667 6.562 113.709 7.85733 111.582 10.448C109.494 13 108.45 16.6927 108.45 21.526C108.45 26.3593 109.494 30.0713 111.582 32.662C113.709 35.2527 116.667 36.548 120.456 36.548Z" fill="#ECF0F1"/>
</svg>
